
        <svg xmlns="http://www.w3.org/2000/svg" xmlns:xlink="http://www.w3.org/1999/xlink" version="1.1" width="3161.9873872825997" height="896.7599419733601" viewBox="0 0 3161.9873872825997 896.7599419733601">
			
			<g transform="scale(8.099369364129993) translate(10, 10)">
				<defs id="SvgjsDefs1833"/><g id="SvgjsG1834" featureKey="symbolFeature-0" transform="matrix(1.391705545938349,0,0,1.391705545938349,-1.1258897249477509,-0.5664236667840059)" fill="#fff"><g xmlns="http://www.w3.org/2000/svg"><path d="M65.191,46.533c0-7.75-4.657-14.422-11.313-17.398v-7.078c0-0.353-0.246-0.658-0.591-0.733l-5.373-1.167   c-0.332-1.027-0.744-2.021-1.229-2.963l2.974-4.631c0.19-0.297,0.148-0.686-0.101-0.936l-6.9-6.9   c-0.249-0.249-0.638-0.291-0.936-0.101L37.091,7.6c-0.957-0.489-1.95-0.901-2.962-1.229l-1.167-5.373   c-0.075-0.345-0.38-0.591-0.733-0.591h-9.77c-0.353,0-0.658,0.246-0.733,0.591l-1.168,5.377c-1,0.331-1.989,0.742-2.949,1.227   l-4.645-2.976c-0.299-0.191-0.687-0.147-0.935,0.102l-6.89,6.9c-0.249,0.249-0.291,0.638-0.101,0.935l2.974,4.642   c-0.487,0.946-0.899,1.937-1.229,2.954L1.4,21.324c-0.345,0.075-0.591,0.38-0.591,0.733v9.76c0,0.353,0.246,0.657,0.59,0.733   l5.387,1.177c0.335,1.015,0.747,2.004,1.227,2.951l-2.975,4.644c-0.19,0.297-0.148,0.686,0.101,0.935l6.89,6.89   c0.249,0.25,0.638,0.291,0.935,0.101l4.645-2.977c0.959,0.485,1.948,0.897,2.949,1.228l1.168,5.376   c0.075,0.345,0.38,0.591,0.733,0.591h5.935c2.781,7.088,9.674,12.127,17.736,12.127C56.64,65.594,65.191,57.043,65.191,46.533z    M27.855,51.966h-4.792l-1.132-5.209c-0.058-0.265-0.253-0.478-0.513-0.558c-1.19-0.366-2.368-0.855-3.499-1.456   c-0.239-0.126-0.527-0.115-0.756,0.031l-4.501,2.885l-6.037-6.037l2.884-4.502c0.147-0.229,0.158-0.519,0.03-0.759   c-0.593-1.108-1.082-2.284-1.455-3.496c-0.08-0.259-0.292-0.455-0.557-0.513l-5.22-1.141v-8.551l5.219-1.132   c0.267-0.058,0.481-0.256,0.559-0.517c0.363-1.211,0.851-2.384,1.451-3.487c0.131-0.24,0.121-0.533-0.027-0.763l-2.884-4.503   l6.037-6.045l4.501,2.884c0.229,0.148,0.518,0.159,0.756,0.031c1.131-0.6,2.309-1.09,3.499-1.455   c0.259-0.08,0.455-0.293,0.513-0.558l1.132-5.21h8.561l1.131,5.21c0.058,0.267,0.256,0.481,0.518,0.559   c1.202,0.359,2.379,0.848,3.499,1.451c0.24,0.129,0.532,0.118,0.761-0.029l4.492-2.884l6.045,6.045l-2.884,4.492   c-0.147,0.231-0.158,0.523-0.027,0.764c0.596,1.096,1.083,2.272,1.45,3.497c0.079,0.262,0.292,0.46,0.56,0.518l5.209,1.132v5.865   c-1.733-0.607-4.154-1.054-6.249-1.054c-0.999,0-1.973,0.101-2.931,0.249c-0.098-8.958-7.331-15.778-15.851-15.778   c-8.756,0-15.88,7.123-15.88,15.88c0,8.381,6.642,15.734,15.84,15.848c-0.142,0.937-0.239,1.889-0.239,2.865   C27.069,48.173,27.334,50.212,27.855,51.966z M27.591,42.177c-8.527,0.028-14.624-6.709-14.624-14.353   c0-7.929,6.451-14.38,14.38-14.38c7.746,0,14.391,6.23,14.355,14.568c-6.542,1.565-11.792,6.493-13.776,12.863   C27.794,41.3,27.694,41.739,27.591,42.177z M28.57,46.533c0-1.814,0.277-3.565,0.79-5.213c2.227-7.144,8.902-12.344,16.769-12.344   c9.559,0,17.563,7.789,17.563,17.557c0,9.683-7.878,17.561-17.561,17.561C36.407,64.094,28.57,56.15,28.57,46.533z"/><path d="M51.992,59.727l0.083-0.131c0.457-0.727,0.547-1.354,0.266-1.861c-0.287-0.52-0.889-0.783-1.788-0.783   c-0.683,0-1.361,0.149-1.337,0.149c0,0,0,0,0,0c-0.505,0.047-0.876-0.015-0.95-0.154c-0.233-0.445,0.388-1.889,1.098-2.917   c3.266-4.898,1.659-8.441,1.584-8.599c-1.041-2.127-2.917-3.251-5.425-3.251c-3.152,0-6.285,1.749-6.476,1.861   c-0.622,0.433-0.814,0.935-0.866,1.28c-0.082,0.549,0.131,0.987,0.264,1.197c0.159,0.371,0.57,0.75,1.581,0.75   c0.886,0,2.033-0.27,2.388-0.359c0.094,0.007,0.129,0.026,0.13,0.026c0.32,0.405-0.531,2.806-2.125,5.326   c-2.527,4.424-0.053,7.066,0.359,7.46c1.285,1.417,2.927,2.136,4.881,2.136c3.195,0,6.083-1.957,6.205-2.04L51.992,59.727z    M50.884,58.663c-0.563,0.355-2.841,1.692-5.225,1.692c-1.52,0-2.793-0.559-3.854-1.729c-0.09-0.078-2.175-1.961-0.1-5.594   c0.742-1.171,3.089-5.124,2.157-6.817c-0.167-0.303-0.585-0.81-1.542-0.81l-0.186,0.025c-0.349,0.093-1.407,0.336-2.107,0.336   c-0.138,0-0.23-0.009-0.288-0.019l-0.032-0.04c0-0.001-0.052-0.096-0.042-0.166c0.011-0.073,0.101-0.173,0.18-0.233   c0.029-0.016,2.917-1.629,5.679-1.629c1.95,0,3.284,0.788,4.073,2.4c0.013,0.029,1.32,2.917-1.472,7.106   c-0.335,0.483-1.966,2.969-1.187,4.457c0.233,0.445,0.761,0.976,1.954,0.976c0.147,0,0.305-0.008,0.569-0.039   c0.005-0.002,0.568-0.127,1.093-0.127c0.201,0,0.332,0.018,0.414,0.037C50.95,58.533,50.923,58.591,50.884,58.663z"/><path d="M48.817,41.772c2.912,0,5.281-2.369,5.281-5.281c0-2.912-2.369-5.281-5.281-5.281c-2.912,0-5.281,2.369-5.281,5.281   C43.536,39.403,45.905,41.772,48.817,41.772z M48.817,32.71c2.085,0,3.781,1.696,3.781,3.781c0,2.085-1.696,3.781-3.781,3.781   c-2.085,0-3.781-1.696-3.781-3.781C45.036,34.407,46.732,32.71,48.817,32.71z"/></g></g><g id="SvgjsG1835" featureKey="nameFeature-0" transform="matrix(0.650514373335637,0,0,0.650514373335637,108.2976035077903,13.944853357495532)" fill="#fff"><path d="M16.055 40.37109 c-7.5391 0 -13.438 -5.2344 -13.438 -14.004 c0 -8.75 5.8984 -13.984 13.438 -13.984 c5.1758 0 9.5703 2.5 11.758 6.875 l-2.4609 1.0938 c-1.8164 -3.4375 -5.2734 -5.3125 -9.2969 -5.3125 c-5.957 0 -10.742 4.0625 -10.742 11.328 c0 7.2852 4.7852 11.348 10.742 11.348 c4.0234 0 7.4805 -1.875 9.2969 -5.3125 l2.4609 1.0938 c-2.1875 4.375 -6.582 6.875 -11.758 6.875 z M54.644062500000004 12.754000000000001 l2.7148 0 l0 27.246 l-2.7148 0 l0 -12.402 l-14.57 0 l0 12.402 l-2.7539 0 l0 -27.246 l2.7539 0 l0 12.363 l14.57 0 l0 -12.363 z M84.4061875 40 l-6.9727 -12.402 l-5.1953 0 l0 12.402 l-2.7148 0 l0 -27.246 l8.75 0 c5.3906 0 8.0078 3.3789 8.0078 7.5391 c0 3.75 -2.207 6.6016 -6.1523 7.1875 l7.4023 12.52 l-3.125 0 z M72.2382875 15.195 l0 10.117 l5.7227 0 c3.8867 0 5.7031 -2.0508 5.7031 -5.0195 c0 -2.9297 -1.8164 -5.0977 -5.7031 -5.0977 l-5.7227 0 z M97.1172375 40 l0 -27.246 l2.7148 0 l0 27.246 l-2.7148 0 z M120.21884375 40.37109 c-5.6055 0 -9.5117 -2.6758 -10.488 -6.9922 l2.7148 -0.66406 c0.74219 3.2617 3.8281 5.2148 7.8516 5.2148 c3.2813 0 6.6797 -1.2891 6.6016 -5.1563 c-0.058594 -3.6719 -3.8867 -4.6094 -7.832 -5.625 c-4.3555 -1.1133 -8.5742 -2.3438 -8.5742 -7.3633 c0 -5.0391 4.2188 -7.4023 8.8477 -7.4023 c4.8047 0 8.8086 2.0703 9.8047 6.4258 l-2.6367 0.68359 c-0.78125 -3.2031 -3.75 -4.668 -7.1094 -4.668 c-2.9883 0 -6.1719 1.3477 -6.1719 4.9805 c0 3.2813 3.2422 4.1992 6.9141 5.1172 c4.4922 1.1133 9.5117 2.3047 9.5117 7.8125 c0 5.3711 -4.4531 7.6367 -9.4336 7.6367 z M153.45684375 12.754000000000001 l0 2.5 l-7.168 0 l0 24.746 l-2.6953 0 l0 -24.746 l-7.168 0 l0 -2.5 l17.031 0 z M173.82453125 40.37109 c-7.5391 0 -13.438 -5.2344 -13.438 -14.004 c0 -8.75 5.8984 -13.984 13.438 -13.984 c7.4805 0 13.418 5.2344 13.418 13.984 c0 8.7695 -5.9375 14.004 -13.418 14.004 z M173.82453125 37.7539 c5.9375 0 10.684 -4.082 10.684 -11.387 c0 -7.2656 -4.7461 -11.328 -10.684 -11.328 c-5.957 0 -10.742 4.0625 -10.742 11.328 c0 7.3047 4.7852 11.387 10.742 11.387 z M207.4729375 12.754000000000001 c4.7656 0 7.9297 3.6719 7.9297 8.2031 c0 4.5703 -3.1641 8.1641 -7.9297 8.1641 l-7.2656 0 l0 10.879 l-2.7148 0 l0 -27.246 l9.9805 0 z M207.1019375 26.698999999999998 c3.4766 0 5.5469 -2.3828 5.5469 -5.7617 c0 -3.3008 -2.0703 -5.8008 -5.5469 -5.8008 l-6.8945 0 l0 11.563 l6.8945 0 z M242.370625 12.754000000000001 l2.7148 0 l0 27.246 l-2.7148 0 l0 -12.402 l-14.57 0 l0 12.402 l-2.7539 0 l0 -27.246 l2.7539 0 l0 12.363 l14.57 0 l0 -12.363 z M271.46875 15.254000000000001 l-11.406 0 l0 9.9023 l10.02 0 l0 2.4805 l-10.02 0 l0 9.8633 l11.406 0 l0 2.5 l-14.219 0 l0 -27.246 l14.219 0 l0 2.5 z M296.34759375 40 l-6.9727 -12.402 l-5.1953 0 l0 12.402 l-2.7148 0 l0 -27.246 l8.75 0 c5.3906 0 8.0078 3.3789 8.0078 7.5391 c0 3.75 -2.207 6.6016 -6.1523 7.1875 l7.4023 12.52 l-3.125 0 z M284.17969375 15.195 l0 10.117 l5.7227 0 c3.8867 0 5.7031 -2.0508 5.7031 -5.0195 c0 -2.9297 -1.8164 -5.0977 -5.7031 -5.0977 l-5.7227 0 z M322.55083125 40 l0 -27.246 l8.418 0 c8.2031 0 12.441 5.7031 12.441 13.613 c0 7.9297 -4.2383 13.633 -12.441 13.633 l-8.418 0 z M325.26563125 37.5 l5.6445 0 c6.543 0 9.707 -4.4922 9.707 -11.133 c0 -6.6211 -3.1641 -11.113 -9.707 -11.113 l-5.6445 0 l0 22.246 z M367.9765625 15.254000000000001 l-11.406 0 l0 9.9023 l10.02 0 l0 2.4805 l-10.02 0 l0 9.8633 l11.406 0 l0 2.5 l-14.219 0 l0 -27.246 l14.219 0 l0 2.5 z M389.49640625 40.37109 c-7.5391 0 -13.438 -5.2344 -13.438 -14.004 c0 -8.75 5.8984 -13.984 13.438 -13.984 c7.4805 0 13.418 5.2344 13.418 13.984 c0 8.7695 -5.9375 14.004 -13.418 14.004 z M389.49640625 37.7539 c5.9375 0 10.684 -4.082 10.684 -11.387 c0 -7.2656 -4.7461 -11.328 -10.684 -11.328 c-5.957 0 -10.742 4.0625 -10.742 11.328 c0 7.3047 4.7852 11.387 10.742 11.387 z"/></g><g id="SvgjsG1836" featureKey="sloganFeature-0" transform="matrix(0.6751602651036648,0,0,0.6751602651036648,108.65501323562944,56.030765513287704)" fill="#fff"><path d="M9.873 8.154 l-5.5176 0 l0 3.8477 l4.7852 0 l0 2.0703 l-4.7852 0 l0 5.9277 l-2.3633 0 l0 -13.926 l7.8809 0 l0 2.0801 z M24.76029453125 20 l-3.6133 -6.2109 l-1.5039 0 l0 6.2109 l-2.334 0 l0 -13.926 l4.834 0 c3.0176 0 4.3457 1.8066 4.3457 4.043 c0 1.9434 -1.1523 3.252 -2.998 3.584 l4.0137 6.2988 l-2.7441 0 z M19.64309453125 8.047 l0 4.0137 l2.1582 0 c1.709 0 2.4414 -0.80078 2.4414 -1.9922 c0 -1.1816 -0.73242 -2.0215 -2.4414 -2.0215 l-2.1582 0 z M40.8583578125 20.18555 c-4.0039 0 -7.0313 -2.7441 -7.0313 -7.1582 c0 -4.4043 3.0273 -7.1484 7.0313 -7.1484 c3.9941 0 7.0215 2.7441 7.0215 7.1484 c0 4.4141 -3.0273 7.1582 -7.0215 7.1582 z M40.8583578125 18.0176 c2.6367 0 4.6973 -1.8262 4.6973 -4.9902 c0 -3.1348 -2.0605 -4.9707 -4.6973 -4.9707 s-4.6973 1.8359 -4.6973 4.9707 c0 3.1641 2.0605 4.9902 4.6973 4.9902 z M65.06223046875 6.074 l2.334 0 l0 13.926 l-2.6172 0 l-6.8359 -10.625 l0 10.625 l-2.3145 0 l0 -13.926 l2.5879 0 l6.8457 10.557 l0 -10.557 z M83.787075 6.074 l0 2.0801 l-3.4375 0 l0 11.846 l-2.3242 0 l0 -11.846 l-3.4473 0 l0 -2.0801 l9.209 0 z M108.6591546875 8.154 l-5.4102 0 l0 3.8574 l4.7852 0 l0 2.0605 l-4.7852 0 l0 3.8379 l5.4102 0 l0 2.0898 l-7.7734 0 l0 -13.926 l7.7734 0 l0 2.0801 z M125.99777734375 6.074 l2.334 0 l0 13.926 l-2.6172 0 l-6.8359 -10.625 l0 10.625 l-2.3145 0 l0 -13.926 l2.5879 0 l6.8457 10.557 l0 -10.557 z M137.037121875 20 l0 -13.926 l4.7656 0 c4.3555 0 6.543 2.832 6.543 6.9531 c0 4.1309 -2.1875 6.9727 -6.543 6.9727 l-4.7656 0 z M139.371121875 17.9102 l2.334 0 c2.8516 0 4.1895 -1.8457 4.1895 -4.8828 c0 -3.0176 -1.3379 -4.873 -4.1895 -4.873 l-2.334 0 l0 9.7559 z M166.0595828125 20 l0 -13.926 l4.7656 0 c4.3555 0 6.543 2.832 6.543 6.9531 c0 4.1309 -2.1875 6.9727 -6.543 6.9727 l-4.7656 0 z M168.3935828125 17.9102 l2.334 0 c2.8516 0 4.1895 -1.8457 4.1895 -4.8828 c0 -3.0176 -1.3379 -4.873 -4.1895 -4.873 l-2.334 0 l0 9.7559 z M192.93893984375 8.154 l-5.4102 0 l0 3.8574 l4.7852 0 l0 2.0605 l-4.7852 0 l0 3.8379 l5.4102 0 l0 2.0898 l-7.7734 0 l0 -13.926 l7.7734 0 l0 2.0801 z M209.5645625 6.074 l2.4805 0 l-5.1367 13.926 l-2.5098 0 l-5.1074 -13.926 l2.4707 0 l3.9063 11.123 z M226.97116640625 8.154 l-5.4102 0 l0 3.8574 l4.7852 0 l0 2.0605 l-4.7852 0 l0 3.8379 l5.4102 0 l0 2.0898 l-7.7734 0 l0 -13.926 l7.7734 0 l0 2.0801 z M237.2099890625 17.9102 l4.5996 0 l0 2.0898 l-6.9336 0 l0 -13.926 l2.334 0 l0 11.836 z M255.07564296875 20.18555 c-4.0039 0 -7.0313 -2.7441 -7.0313 -7.1582 c0 -4.4043 3.0273 -7.1484 7.0313 -7.1484 c3.9941 0 7.0215 2.7441 7.0215 7.1484 c0 4.4141 -3.0273 7.1582 -7.0215 7.1582 z M255.07564296875 18.0176 c2.6367 0 4.6973 -1.8262 4.6973 -4.9902 c0 -3.1348 -2.0605 -4.9707 -4.6973 -4.9707 s-4.6973 1.8359 -4.6973 4.9707 c0 3.1641 2.0605 4.9902 4.6973 4.9902 z M275.382815625 6.074 c2.6172 0 4.2871 1.9629 4.2871 4.3848 c0 2.4609 -1.6699 4.3457 -4.2871 4.3457 l-3.2031 0 l0 5.1953 l-2.334 0 l0 -13.926 l5.5371 0 z M275.011715625 12.8125 c1.5625 0 2.3828 -0.95703 2.3828 -2.3828 c0 -1.377 -0.82031 -2.3828 -2.3828 -2.3828 l-2.832 0 l0 4.7656 l2.832 0 z M294.92819765625 8.154 l-5.4102 0 l0 3.8574 l4.7852 0 l0 2.0605 l-4.7852 0 l0 3.8379 l5.4102 0 l0 2.0898 l-7.7734 0 l0 -13.926 l7.7734 0 l0 2.0801 z M310.2842203125 20 l-3.6133 -6.2109 l-1.5039 0 l0 6.2109 l-2.334 0 l0 -13.926 l4.834 0 c3.0176 0 4.3457 1.8066 4.3457 4.043 c0 1.9434 -1.1523 3.252 -2.998 3.584 l4.0137 6.2988 l-2.7441 0 z M305.1670203125 8.047 l0 4.0137 l2.1582 0 c1.709 0 2.4414 -0.80078 2.4414 -1.9922 c0 -1.1816 -0.73242 -2.0215 -2.4414 -2.0215 l-2.1582 0 z"/></g>
			</g>
		</svg>
	